<?xml version="1.0" standalone="no"?>
<!DOCTYPE svg PUBLIC "-//W3C//DTD SVG 20010904//EN"
 "http://www.w3.org/TR/2001/REC-SVG-20010904/DTD/svg10.dtd">
<svg version="1.0" xmlns="http://www.w3.org/2000/svg"
 width="12.000000pt" height="12.000000pt" viewBox="0 0 512.000000 512.000000"
 preserveAspectRatio="xMidYMid meet" fill="#eec643" stroke="current">
<metadata>
Created by potrace 1.16, written by Peter Selinger 2001-2019
</metadata>
<g transform="translate(0.000000,512.000000) scale(0.100000,-0.100000)"
fill="current" stroke="current">
<path d="M2470 4349 c-522 -27 -915 -160 -1013 -343 -21 -40 -22 -48 -18 -320
l3 -278 -53 7 c-82 11 -274 9 -364 -5 -430 -65 -809 -380 -959 -798 -89 -250
-89 -574 0 -824 106 -295 326 -543 604 -683 148 -74 270 -108 446 -125 192
-18 399 14 574 88 89 37 224 114 274 155 27 22 31 23 90 10 121 -25 284 -44
433 -50 150 -6 152 -6 158 -30 26 -103 155 -200 355 -267 486 -162 1265 -162
1749 0 132 44 210 85 279 149 97 88 92 41 92 753 0 697 4 662 -73 740 -107
110 -314 191 -619 241 -138 23 -322 41 -415 41 l-63 0 0 560 0 559 -23 53
c-90 204 -476 337 -1066 368 -102 5 -199 9 -216 8 -16 0 -95 -4 -175 -9z m687
-237 c165 -26 314 -63 409 -103 78 -33 151 -80 161 -105 8 -22 -20 -48 -95
-87 -351 -183 -1158 -221 -1682 -81 -117 31 -274 105 -296 140 -16 24 -16 26
7 50 74 79 337 162 609 193 52 6 109 13 125 15 17 2 165 3 330 1 243 -2 325
-7 432 -23z m582 -609 c0 -72 -5 -143 -12 -162 -23 -65 -198 -145 -422 -191
-205 -43 -330 -54 -620 -54 -286 -1 -372 6 -582 45 -102 19 -119 26 -190 72
-43 29 -117 70 -165 92 l-87 40 -1 100 c0 55 -3 117 -7 138 l-6 38 39 -16
c410 -177 1151 -215 1709 -90 120 27 244 67 300 98 17 9 33 16 38 17 4 0 7
-57 6 -127z m-2314 -310 c297 -57 563 -260 701 -535 141 -281 146 -604 14
-885 -153 -328 -460 -545 -819 -582 -487 -51 -930 251 -1078 734 -25 84 -27
102 -27 275 0 173 2 191 27 275 161 523 650 820 1182 718z m2315 -256 l0 -124
-157 -12 c-386 -30 -713 -122 -855 -242 -52 -43 -71 -46 -245 -33 l-81 7 -22
66 c-23 68 -92 211 -131 270 l-23 34 35 -6 c19 -4 121 -12 227 -17 425 -23
892 35 1153 143 46 19 87 35 92 36 4 0 7 -55 7 -122z m540 -362 c310 -39 577
-129 624 -208 24 -41 -105 -116 -295 -171 -369 -107 -1012 -115 -1421 -17
-103 24 -220 66 -273 96 -54 31 -95 73 -88 90 9 24 104 80 188 113 133 50 390
100 605 116 117 8 539 -3 660 -19z m-1734 -265 l74 0 0 -175 0 -175 -82 0
c-46 0 -89 4 -96 9 -11 6 -11 28 -1 117 6 60 8 137 5 173 -6 56 -5 63 9 57 9
-3 50 -6 91 -6z m514 -315 c220 -61 503 -95 799 -95 424 0 771 59 1039 177 9
4 12 -27 12 -137 0 -78 -4 -149 -10 -159 -27 -51 -210 -131 -390 -169 -224
-49 -318 -57 -655 -56 -280 0 -338 3 -460 22 -236 37 -445 103 -517 162 l-37
31 -3 153 -3 153 70 -29 c39 -16 108 -40 155 -53z m-442 -254 c9 -1 12 -43 12
-177 l0 -177 -127 7 c-120 7 -249 20 -300 31 -21 5 -19 9 33 88 31 45 73 118
94 162 l38 80 119 -7 c65 -3 124 -7 131 -7z m2256 -558 c-96 -84 -390 -164
-704 -193 -148 -13 -442 -13 -590 0 -317 29 -600 106 -688 188 l-41 37 -4 146
-4 146 81 -32 c241 -94 545 -139 941 -139 413 1 753 55 985 157 l55 24 3 -151
3 -151 -37 -32z"/>
<path d="M1172 3020 c-34 -21 -52 -54 -52 -98 0 -23 -9 -31 -60 -55 -75 -35
-149 -108 -187 -184 -25 -53 -28 -68 -28 -163 0 -93 3 -112 27 -162 57 -122
181 -210 315 -223 94 -9 124 -20 161 -58 55 -57 67 -128 33 -203 -57 -125
-239 -136 -311 -19 -11 18 -24 58 -27 87 -9 73 -43 108 -106 108 -39 0 -49 -5
-72 -32 -25 -30 -27 -37 -23 -104 9 -132 94 -254 218 -311 l60 -27 0 -59 c0
-54 3 -62 34 -93 45 -45 92 -47 138 -5 29 25 32 35 36 94 l4 65 63 31 c140 69
230 235 211 384 -13 95 -45 157 -115 228 -76 75 -134 103 -254 117 -40 5 -87
17 -104 26 -90 46 -118 167 -58 257 50 76 166 98 245 45 45 -30 79 -90 80
-141 0 -77 75 -130 143 -101 78 32 85 136 21 266 -40 80 -103 141 -180 177
-48 22 -54 28 -54 54 0 42 -25 86 -60 104 -39 20 -58 19 -98 -5z"/>
</g>
</svg>
