<?xml version="1.0" standalone="no"?>
<!DOCTYPE svg PUBLIC "-//W3C//DTD SVG 20010904//EN"
 "http://www.w3.org/TR/2001/REC-SVG-20010904/DTD/svg10.dtd">
<svg version="1.0" xmlns="http://www.w3.org/2000/svg"
 width="16.000000pt" height="16.000000pt" viewBox="0 0 512.000000 512.000000"
 preserveAspectRatio="xMidYMid meet">
<metadata>
Created by potrace 1.16, written by Peter Selinger 2001-2019
</metadata>
<g transform="translate(0.000000,512.000000) scale(0.100000,-0.100000)"
fill="current" stroke="current">
<path d="M2893 4793 c-12 -2 -630 -213 -1375 -468 -1014 -348 -1357 -469
-1370 -486 -17 -20 -18 -110 -18 -1613 0 -1403 2 -1599 15 -1651 26 -100 85
-172 180 -223 l50 -27 2070 0 2070 0 56 28 c66 32 132 99 162 165 21 46 22 59
25 520 l3 472 27 0 c74 0 146 42 180 104 15 28 17 75 17 476 0 416 -1 447 -19
483 -27 54 -73 86 -145 99 l-60 11 -3 471 c-3 466 -3 472 -26 517 -34 70 -84
122 -154 160 l-63 34 -502 3 -503 3 0 232 c0 261 -10 327 -60 428 -62 121
-197 228 -330 258 -44 10 -183 13 -227 4z m258 -175 c75 -37 135 -99 173 -178
l31 -65 3 -252 3 -253 -1348 1 c-741 0 -1343 3 -1338 5 6 2 514 177 1130 389
l1120 385 85 -2 c69 -3 95 -8 141 -30z m1371 -927 c19 -13 46 -40 59 -59 l24
-36 3 -457 3 -457 -363 -4 c-402 -5 -409 -6 -543 -76 -130 -68 -236 -202 -280
-355 -11 -38 -17 -94 -17 -155 1 -218 109 -403 296 -506 122 -68 132 -69 539
-74 l367 -4 0 -450 0 -451 -25 -43 c-15 -26 -43 -54 -69 -69 l-43 -25 -2036 2
-2035 3 -39 31 c-21 17 -47 46 -58 65 -20 34 -20 54 -23 1592 l-2 1557 2103
-2 2103 -3 36 -24z m300 -1178 c17 -15 18 -41 18 -419 0 -353 -2 -405 -16
-418 -23 -24 -850 -24 -939 -1 -165 43 -284 167 -321 334 -20 89 -9 181 33
270 33 69 130 169 198 201 95 46 126 48 579 49 386 1 431 -1 448 -16z"/>
<path d="M3955 2341 c-193 -47 -260 -290 -118 -428 124 -120 325 -84 406 72
26 52 28 143 4 207 -42 109 -176 177 -292 149z m111 -160 c37 -22 59 -70 50
-107 -4 -15 -20 -39 -36 -55 -41 -42 -91 -40 -136 5 -41 41 -46 89 -13 130 38
48 85 57 135 27z"/>
</g>
</svg>
