<?xml version="1.0" standalone="no"?>
<!DOCTYPE svg PUBLIC "-//W3C//DTD SVG 20010904//EN"
 "http://www.w3.org/TR/2001/REC-SVG-20010904/DTD/svg10.dtd">
<svg version="1.0" xmlns="http://www.w3.org/2000/svg"
 width="24.000000pt" height="24.000000pt" viewBox="0 0 64.000000 64.000000"
 preserveAspectRatio="xMidYMid meet">
<metadata>
Created by potrace 1.16, written by Peter Selinger 2001-2019
</metadata>
<g transform="translate(0.000000,64.000000) scale(0.100000,-0.100000)"
fill="current" stroke="current">
<path d="M179 587 c-108 -56 -161 -146 -160 -274 1 -116 60 -211 163 -262 52
-27 72 -31 138 -31 66 0 86 4 138 31 108 53 162 143 162 270 0 177 -123 299
-302 299 -67 0 -84 -4 -139 -33z m235 -31 c49 -20 112 -81 135 -130 25 -51 28
-147 6 -200 -15 -36 -28 -45 -40 -26 -4 6 -30 22 -58 37 -45 23 -64 27 -137
27 -73 0 -92 -4 -137 -27 -28 -15 -54 -31 -58 -37 -22 -36 -55 38 -55 123 0
98 52 180 145 226 48 24 150 28 199 7z"/>
<path d="M234 506 c-30 -30 -34 -40 -34 -86 0 -46 4 -56 34 -86 30 -30 40 -34
86 -34 46 0 56 4 86 34 30 30 34 40 34 86 0 46 -4 56 -34 86 -30 30 -40 34
-86 34 -46 0 -56 -4 -86 -34z"/>
</g>
</svg>
