<?xml version="1.0" standalone="no"?>
<!DOCTYPE svg PUBLIC "-//W3C//DTD SVG 20010904//EN"
 "http://www.w3.org/TR/2001/REC-SVG-20010904/DTD/svg10.dtd">
<svg version="1.0" xmlns="http://www.w3.org/2000/svg"
 width="16.000000pt" height="16.000000pt" viewBox="0 0 512.000000 512.000000"
 preserveAspectRatio="xMidYMid meet">
<metadata>
Created by potrace 1.16, written by Peter Selinger 2001-2019
</metadata>
<g transform="translate(0.000000,512.000000) scale(0.100000,-0.100000)"
fill="current" stroke="none">
<path d="M2495 4349 c-541 -25 -938 -156 -1038 -343 -21 -40 -22 -48 -18 -320
l3 -278 -63 7 c-99 12 -285 8 -380 -9 -423 -75 -785 -383 -933 -794 -89 -250
-89 -574 0 -824 124 -343 399 -618 742 -742 175 -63 415 -85 607 -56 167 25
384 114 519 212 l60 44 120 -22 c138 -25 328 -44 444 -44 80 0 80 0 87 -28 10
-45 71 -118 135 -162 147 -100 395 -171 718 -205 173 -19 555 -22 717 -5 477
47 807 176 886 345 17 38 19 77 19 664 0 612 0 626 -21 668 -89 184 -490 321
-1023 349 l-126 7 0 558 0 558 -23 53 c-32 72 -117 148 -223 198 -262 125
-736 192 -1209 169z m605 -234 c292 -41 504 -106 593 -185 l38 -33 -26 -27
c-15 -15 -61 -44 -103 -63 -388 -181 -1213 -206 -1702 -51 -130 41 -250 107
-250 138 0 38 103 97 250 144 143 46 276 69 545 96 93 9 545 -4 655 -19z m638
-655 c-4 -147 -9 -155 -130 -214 -318 -156 -1004 -204 -1512 -106 -97 19 -116
26 -172 66 -65 46 -229 134 -250 134 -10 0 -14 35 -16 138 l-3 138 80 -32
c435 -175 1284 -191 1795 -34 53 16 120 40 150 53 l55 25 3 -27 c2 -14 2 -78
0 -141z m-2268 -283 c351 -91 618 -352 726 -712 25 -82 27 -105 28 -260 1
-195 -15 -274 -84 -423 -74 -158 -188 -297 -329 -401 -178 -132 -407 -200
-639 -188 -263 13 -496 119 -675 307 -131 137 -214 285 -259 466 -31 125 -32
342 -1 464 100 399 407 688 810 765 114 21 301 13 423 -18z m2270 -241 l0
-123 -92 -7 c-451 -32 -778 -120 -922 -247 -49 -44 -59 -45 -234 -33 l-90 7
-22 66 c-23 68 -92 211 -131 270 l-23 34 35 -6 c85 -16 387 -29 534 -23 374
15 736 83 895 167 19 10 38 18 43 19 4 0 7 -56 7 -124z m485 -361 c314 -33
585 -114 664 -198 l23 -26 -28 -26 c-86 -80 -307 -149 -614 -192 -158 -21
-611 -25 -775 -5 -167 20 -343 58 -451 97 -98 35 -200 93 -211 121 -9 23 25
52 112 94 129 64 342 116 565 139 144 14 561 12 715 -4z m-1605 -441 l0 -174
-82 0 c-46 0 -89 4 -96 9 -11 6 -11 28 -1 117 6 60 8 136 5 169 l-6 60 90 -3
90 -3 0 -175z m2290 -195 c0 -77 -4 -148 -10 -158 -38 -73 -302 -164 -595
-208 -177 -26 -719 -26 -890 1 -243 37 -464 106 -538 167 l-37 30 0 151 c0
139 1 150 18 143 129 -57 343 -111 552 -140 178 -25 588 -31 792 -11 263 25
557 91 665 150 15 8 31 15 36 16 4 0 7 -63 7 -141z m-2297 -198 c15 -1 17 -16
17 -178 l0 -176 -120 7 c-118 6 -263 21 -307 31 -21 5 -19 9 33 88 50 74 124
214 124 234 0 4 53 5 117 1 65 -3 126 -7 136 -7z m2293 -528 c-11 -28 -129
-92 -233 -126 -217 -72 -480 -107 -798 -107 -317 0 -583 36 -795 106 -113 38
-172 68 -206 106 -20 21 -22 37 -26 169 l-4 145 68 -28 c472 -198 1470 -191
1938 14 l55 24 3 -145 c1 -80 0 -151 -2 -158z"/>
<path d="M1168 3024 c-35 -19 -48 -43 -48 -91 0 -37 -2 -39 -52 -57 -38 -13
-71 -37 -119 -85 -87 -87 -113 -150 -113 -276 0 -80 3 -97 30 -155 37 -79 78
-128 142 -168 54 -34 139 -62 191 -62 128 0 221 -107 192 -218 -30 -111 -149
-164 -251 -112 -51 26 -78 67 -91 137 -13 71 -28 96 -68 113 -41 17 -92 6
-122 -26 -21 -22 -24 -35 -23 -92 2 -92 33 -168 96 -238 52 -56 138 -114 171
-114 14 0 17 -10 17 -64 0 -54 4 -69 25 -94 30 -36 75 -47 119 -28 49 21 66
51 66 121 l0 60 58 25 c73 31 149 107 187 185 27 54 29 70 30 165 0 99 -2 109
-33 172 -62 127 -173 200 -328 217 -74 9 -104 20 -142 55 -88 79 -67 223 41
277 56 29 132 23 181 -15 42 -31 62 -66 71 -121 15 -88 47 -125 110 -125 74 0
111 55 102 150 -11 129 -107 263 -221 311 -52 21 -56 25 -56 55 0 91 -83 141
-162 98z"/>
</g>
</svg>
