<?xml version="1.0" standalone="no"?>
<!DOCTYPE svg PUBLIC "-//W3C//DTD SVG 20010904//EN"
 "http://www.w3.org/TR/2001/REC-SVG-20010904/DTD/svg10.dtd">
<svg version="1.0" xmlns="http://www.w3.org/2000/svg"
 width="20.000000pt" height="20.000000pt" viewBox="0 0 512.000000 512.000000"
 preserveAspectRatio="xMidYMid meet">
<metadata>
Created by potrace 1.16, written by Peter Selinger 2001-2019
</metadata>
<g transform="translate(0.000000,512.000000) scale(0.100000,-0.100000)"
fill="current" stroke="current">
<path d="M2235 5105 c-590 -77 -1118 -346 -1532 -779 -359 -376 -596 -854
-678 -1366 -26 -160 -32 -539 -11 -710 97 -800 562 -1501 1266 -1913 256 -149
549 -254 864 -309 174 -30 543 -37 727 -13 1102 138 1984 955 2204 2040 47
230 59 584 30 825 -144 1157 -1068 2081 -2225 2225 -152 18 -501 18 -645 0z
m615 -331 c805 -101 1517 -667 1803 -1434 155 -415 181 -898 72 -1326 -200
-782 -804 -1396 -1583 -1610 -443 -121 -947 -96 -1378 69 -665 255 -1179 827
-1364 1519 -95 357 -95 779 0 1136 105 392 316 752 606 1032 497 481 1157 700
1844 614z"/>
<path d="M2632 3500 c-48 -29 -72 -75 -72 -138 0 -29 5 -63 11 -75 6 -12 133
-145 282 -294 l272 -273 -790 0 c-771 0 -791 -1 -823 -20 -48 -30 -72 -75 -72
-140 0 -65 24 -110 72 -140 32 -19 52 -20 823 -20 l790 0 -272 -272 c-149
-150 -276 -283 -282 -295 -6 -12 -11 -46 -11 -75 0 -97 61 -158 158 -158 29 0
63 5 75 11 31 16 855 838 873 871 8 15 14 50 14 78 0 28 -6 63 -14 78 -18 33
-842 855 -873 871 -36 18 -124 13 -161 -9z"/>
</g>
</svg>
