<?xml version="1.0" standalone="no"?>
<!DOCTYPE svg PUBLIC "-//W3C//DTD SVG 20010904//EN"
 "http://www.w3.org/TR/2001/REC-SVG-20010904/DTD/svg10.dtd">
<svg version="1.0" xmlns="http://www.w3.org/2000/svg"
 width="20.000000pt" height="20.000000pt" viewBox="0 0 512.000000 512.000000"
 preserveAspectRatio="xMidYMid meet">
<metadata>
Created by potrace 1.16, written by Peter Selinger 2001-2019
</metadata>
<g transform="translate(0.000000,512.000000) scale(0.100000,-0.100000)"
fill="current" stroke="current">
<path d="M392 4140 c-18 -11 -41 -34 -52 -52 -20 -33 -20 -54 -20 -1528 0
-1474 0 -1495 20 -1528 29 -48 75 -72 138 -72 29 0 65 6 80 14 33 18 1495
1482 1511 1513 16 31 14 119 -3 151 -18 33 -1482 1495 -1513 1511 -36 18 -124
13 -161 -9z m770 -2102 l-522 -523 0 1045 0 1045 522 -523 523 -522 -523 -522z"/>
<path d="M2472 4140 c-18 -11 -41 -34 -52 -52 -20 -33 -20 -54 -20 -1528 0
-1474 0 -1495 20 -1528 29 -48 75 -72 138 -72 29 0 65 6 80 14 33 18 1495
1482 1511 1513 16 31 14 119 -3 151 -18 33 -1482 1495 -1513 1511 -36 18 -124
13 -161 -9z m770 -2102 l-522 -523 0 1045 0 1045 522 -523 523 -522 -523 -522z"/>
<path d="M4555 4141 c-48 -29 -64 -54 -75 -113 -7 -36 -9 -553 -8 -1504 3
-1441 3 -1449 24 -1484 32 -55 77 -80 143 -80 66 0 111 23 141 72 20 33 20 50
18 1540 l-3 1506 -25 27 c-14 15 -37 33 -52 41 -39 20 -127 18 -163 -5z"/>
</g>
</svg>
